{"title":"The.Westerner.1940.HQ.720p.x264.AC3.[FrOnkY]","uid":11963073,"size":3140254928,"categoryP":"video","categoryS":"hd___movies","magnet":"?xt=urn:btih:d430ad3594e7e4d1ab91362c1f006ba429078380&amp;dn=The.Westerner.1940.HQ.720p.x264.AC3.%5BFrOnkY%5D&amp;tr=udp%3A%2F%2Ftracker.openbittorrent.com%3A80&amp;tr=udp%3A%2F%2Fopen.demonii.com%3A1337&amp;tr=udp%3A%2F%2Ftracker.coppersurfer.tk%3A6969&amp;tr=udp%3A%2F%2Fexodus.desync.com%3A6969","seeders":0,"leechers":0,"uploader":"HDmEntEs","files":1,"time":1432595866,"description":"The.Westerner.1940.HQ.720p.x264.AC3.[FrOnkY].mkv\n\n\nFormat                                   : Matroska\nFormat version                           : Version 4 / Version 2\nFile size                                : 2.92 GiB\nDuration                                 : 1h 39mn\nOverall bit rate                         : 4 202 Kbps\nWriting application                      : mkvmerge v6.9.1 ('Blue Panther') 32bit built on Apr 18 2014 18:15:44\nWriting library                          : libebml v1.3.0 + libmatroska v1.4.1\nAttachements                             : Westerner1.jpg / Westerner2.jpg / Westerner3.jpg / Westerner4.jpg / Westerner5.jpg / Westerner6.jpg\n\nVideo\nID                                       : 1\nFormat                                   : AVC\nFormat/Info                              : Advanced Video Codec\nFormat profile                           : High L4.1\nFormat settings, CABAC                   : Yes\nFormat settings, ReFrames                : 11 frames\nCodec ID                                 : V_MPEG4/ISO/AVC\nDuration                                 : 1h 39mn\nBit rate                                 : 3 999 Kbps\nWidth                                    : 972 pixels\nHeight                                   : 720 pixels\nDisplay aspect ratio                     : 4:3\nFrame rate mode                          : Constant\nFrame rate                               : 23.976 fps\nColor space                              : YUV\nChroma subsampling                       : 4:2:0\nBit depth                                : 8 bits\nScan type                                : Progressive\nBits/(Pixel*Frame)                       : 0.238\nStream size                              : 2.73 GiB (93%)\nWriting library                          : x264 core 142 r2491 24e4fed\nLanguage                                 : English\nDefault                                  : Yes\nForced                                   : No\n\nAudio\nID                                       : 2\nFormat                                   : AC-3\nFormat/Info                              : Audio Coding 3\nMode extension                           : CM (complete main)\nFormat settings, Endianness              : Big\nCodec ID                                 : A_AC3\nDuration                                 : 1h 39mn\nBit rate mode                            : Constant\nBit rate                                 : 192 Kbps\nChannel(s)                               : 2 channels\nChannel positions                        : Front: L R\nSampling rate                            : 48.0 KHz\nBit depth                                : 16 bits\nStream size                              : 137 MiB (5%)\nLanguage                                 : English\nDefault                                  : Yes\nForced                                   : No\n\nText #1\nID                                       : 3\nFormat                                   : UTF-8\nCodec ID                                 : S_TEXT/UTF8\nCodec ID/Info                            : UTF-8 Plain Text\nLanguage                                 : Spanish\nDefault                                  : Yes\nForced                                   : No\n\nText #2\nID                                       : 4\nFormat                                   : UTF-8\nCodec ID                                 : S_TEXT/UTF8\nCodec ID/Info                            : UTF-8 Plain Text\nLanguage                                 : Spanish\nDefault                                  : No\nForced                                   : No\n\nText #3\nID                                       : 5\nFormat                                   : UTF-8\nCodec ID                                 : S_TEXT/UTF8\nCodec ID/Info                            : UTF-8 Plain Text\nLanguage                                 : English\nDefault                                  : No\nForced                                   : No\n\nMenu\n00:00:00.000                             : en:Chapter 01\n00:01:01.333                             : en:Chapter 02\n00:03:25.333                             : en:Chapter 03\n00:06:31.000                             : en:Chapter 04\n00:12:40.333                             : en:Chapter 05\n00:20:28.888                             : en:Chapter 06\n00:22:03.333                             : en:Chapter 07\n00:26:33.999                             : en:Chapter 08\n00:31:13.555                             : en:Chapter 09\n00:36:59.222                             : en:Chapter 10\n00:38:50.999                             : en:Chapter 11\n00:41:50.222                             : en:Chapter 12\n00:45:25.111                             : en:Chapter 13\n00:52:57.111                             : en:Chapter 14\n00:55:38.666                             : en:Chapter 15\n00:58:08.222                             : en:Chapter 16\n01:02:19.666                             : en:Chapter 17\n01:06:06.999                             : en:Chapter 18\n01:10:44.000                             : en:Chapter 19\n01:15:59.999                             : en:Chapter 20\n01:17:40.888                             : en:Chapter 21\n01:20:59.222                             : en:Chapter 22\n01:25:23.555                             : en:Chapter 23\n01:28:04.222                             : en:Chapter 24\n01:29:30.111                             : en:Chapter 25\n01:31:22.999                             : en:Chapter 26\n01:34:51.111                             : en:Chapter 27\n01:38:08.000                             : en:Chapter 28\n\n\nSD - HQ\n &lt;a href=&quot;\nhttp://i.imgur.com/qQvss7d.png&quot; rel=&quot;nofollow&quot; target=&quot;_NEW&quot;&gt;\nhttp://i.imgur.com/qQvss7d.png&lt;/a&gt; &lt;a href=&quot;\nhttp://i.imgur.com/HxNopCY.png&quot; rel=&quot;nofollow&quot; target=&quot;_NEW&quot;&gt;\nhttp://i.imgur.com/HxNopCY.png&lt;/a&gt;","torrent":{"xt":"urn:btih:d430ad3594e7e4d1ab91362c1f006ba429078380","amp;dn":"The.Westerner.1940.HQ.720p.x264.AC3.%5BFrOnkY%5D","amp;tr":["udp%3A%2F%2Ftracker.openbittorrent.com%3A80","udp%3A%2F%2Fopen.demonii.com%3A1337","udp%3A%2F%2Ftracker.coppersurfer.tk%3A6969","udp%3A%2F%2Fexodus.desync.com%3A6969"],"infoHash":"d430ad3594e7e4d1ab91362c1f006ba429078380","infoHashBuffer":{"type":"Buffer","data":[212,48,173,53,148,231,228,209,171,145,54,44,31,0,107,164,41,7,131,128]},"announce":[],"urlList":[]}}